<svg width="42" height="42" viewBox="0 0 42 42" fill="none" xmlns="http://www.w3.org/2000/svg">
<path d="M38.5659 31.6723C40.1782 28.7799 41.098 25.4487 41.098 21.9023C41.098 10.8025 32.0999 1.80444 21.0002 1.80444C9.90043 1.80444 0.902344 10.8025 0.902344 21.9023C0.902344 25.4487 1.82216 28.7799 3.4344 31.6723H38.5659Z" fill="#FF7186"/>
<path d="M27.0784 25.8407C27.0788 25.8404 27.079 25.8401 27.079 25.8401C27.0306 25.8265 26.9813 25.814 26.9323 25.801C26.9161 25.7968 26.9 25.7921 26.8838 25.7878L26.8835 25.7881C26.7183 25.7447 26.5524 25.7028 26.3844 25.664C25.5516 24.8312 25.3404 23.2523 25.3025 22.1477C24.8679 22.6539 24.4118 23.0774 23.9759 23.4157C23.1268 24.0752 22.079 24.4333 20.9998 24.4333C19.9206 24.4333 18.8727 24.0752 18.0236 23.4157C17.5878 23.0774 17.1316 22.6538 16.697 22.1477C16.6589 23.2523 16.4479 24.8312 15.615 25.664C15.4447 25.7033 15.2764 25.7459 15.1089 25.7899C15.1089 25.7899 15.1088 25.7897 15.1086 25.7896C15.0931 25.7937 15.0778 25.7981 15.0623 25.8022C15.0127 25.8153 14.9628 25.828 14.9135 25.8415C14.9135 25.8415 14.9141 25.8421 14.9144 25.8423C14.147 26.0525 13.4064 26.3095 12.6826 26.6129V28.5706C14.0318 30.4147 15.837 31.5645 16.8702 31.9988C17.3346 32.1939 17.8296 32.2928 18.3415 32.2928H19.7922L20.147 32.4159H21.8524L22.2072 32.2928H23.6578C24.1697 32.2928 24.6647 32.1938 25.1291 31.9988C26.1565 31.5669 27.9472 30.4278 29.2939 28.6018V26.6036C28.5754 26.3037 27.8402 26.0491 27.0784 25.8407Z" fill="#FFAA7B"/>
<path d="M18.0241 23.4158C17.5883 23.0774 17.1321 22.6539 16.6975 22.1477C16.6595 23.2523 16.4484 24.8312 15.6156 25.664C15.4452 25.7033 15.277 25.7459 15.1096 25.79C15.1096 25.79 15.1094 25.7898 15.1092 25.7897C15.0937 25.7938 15.0784 25.7982 15.0629 25.8024C15.0133 25.8155 14.9635 25.8281 14.9141 25.8417C14.9141 25.8417 14.9147 25.8422 14.9151 25.8425C14.6156 25.9245 14.3212 26.0158 14.0293 26.1121C14.8424 28.0535 16.5491 31.3969 18.3548 30.4708C20.8608 29.1857 21.0003 24.4333 21.0003 24.4333C19.9211 24.4333 18.8732 24.0752 18.0241 23.4158Z" fill="#FC9460"/>
<path d="M28.2093 29.7842C27.0924 30.8164 25.8976 31.4299 25.1294 31.7528C24.665 31.9479 24.17 32.0468 23.6581 32.0468H22.2075L21.8527 32.1699C21.2422 32.1699 20.7578 32.1699 20.1473 32.1699L19.7925 32.0468H18.3419C17.83 32.0468 17.335 31.9478 16.8705 31.7528C16.7054 31.6834 16.5197 31.5996 16.3201 31.5021V37.6072C16.3201 37.6072 14.7555 39.1525 15.9078 41.3478C17.5343 41.7726 19.2404 41.9999 21 41.9999C25.8813 41.9999 30.3557 40.2592 33.8376 37.3653C33.8376 37.2649 33.8376 37.1654 33.8376 37.0681C33.8376 34.0121 30.1748 31.1175 28.2093 29.7842Z" fill="#FFC839"/>
<path d="M16.4848 37.6072V31.5807C15.7356 31.2299 14.7393 30.6588 13.7968 29.7893C11.8354 31.1192 8.1709 34.0123 8.1709 37.067V37.372C10.4449 39.2601 13.1419 40.6561 16.0986 41.3973C14.8965 39.1758 16.4848 37.6072 16.4848 37.6072Z" fill="#FFB332"/>
<path d="M38.566 31.6723C38.5485 31.6384 38.5313 31.604 38.5136 31.5706C37.8573 30.336 36.755 29.398 35.4399 28.923L29.8758 26.9136C29.9783 27.1202 30.048 27.4259 29.8497 27.7627C29.331 28.6439 28.6949 29.3597 28.041 29.9363C29.8787 31.1611 33.6012 34.0144 33.6012 37.0317V37.5581C35.6105 35.9388 37.3015 33.9409 38.566 31.6723Z" fill="#FFDD40"/>
<path d="M12.1508 27.7627C11.9525 27.4259 12.0223 27.1202 12.1247 26.9136L6.56062 28.923C5.24557 29.398 4.14332 30.336 3.48699 31.5706C3.46919 31.604 3.45204 31.6384 3.43457 31.6723C4.69908 33.9409 6.38999 35.9388 8.39943 37.5581C8.39943 37.3782 8.39943 37.2022 8.39943 37.0317C8.39943 34.0144 12.1218 31.1612 13.9595 29.9363C13.3056 29.3597 12.6696 28.6439 12.1508 27.7627Z" fill="#FFC839"/>
<path d="M30.4451 24.0542C29.8371 22.6357 27.8653 21.8066 25.2695 20.9375L25.0914 22.359C25.0914 22.359 26.7296 28.8237 21.8525 32.1701H24.2247C24.8892 32.1701 25.5463 32.0304 26.1516 31.7562C26.9126 31.4113 27.9796 30.8508 28.9307 30.0736C30.7083 28.6208 31.3495 26.1644 30.4451 24.0542Z" fill="#FEE77F"/>
<path d="M17.0946 27.9955C16.1912 27.763 13.8749 27.4597 13.2578 30.223C14.1592 30.9229 15.1376 31.4337 15.8488 31.756C16.454 32.0303 17.1111 32.1699 17.7756 32.1699H20.1478C18.4686 31.0177 17.5619 29.4958 17.0946 27.9955Z" fill="#FEE77F"/>
<path d="M16.9089 22.359L16.7309 20.9375C14.135 21.8066 12.1632 22.6356 11.5553 24.0542C10.6509 26.1644 11.292 28.6208 13.0697 30.0735C13.1762 30.1605 13.2842 30.2444 13.393 30.3259C14.0091 27.0275 17.1846 28.2684 17.1846 28.2684L17.1847 28.2678C16.1598 25.3176 16.9089 22.359 16.9089 22.359Z" fill="#FFDD40"/>
<path d="M16.4841 37.6073C16.0991 37.6073 15.7842 37.2924 15.7842 36.9074V31.1584C15.7842 30.7734 16.0991 30.4585 16.4841 30.4585C16.869 30.4585 17.184 30.7734 17.184 31.1584V36.9074C17.184 37.2924 16.869 37.6073 16.4841 37.6073Z" fill="#DEEEFF"/>
<path d="M25.4929 37.6073C25.1079 37.6073 24.793 37.2924 24.793 36.9074V31.1584C24.793 30.7734 25.1079 30.4585 25.4929 30.4585C25.8778 30.4585 26.1927 30.7734 26.1927 31.1584V36.9074C26.1927 37.2924 25.8778 37.6073 25.4929 37.6073Z" fill="#DEEEFF"/>
<path d="M33.7642 6.37769C32.3064 7.37396 31.2031 8.89949 31.5873 11.1929C32.5938 17.202 27.9576 20.2676 35.2035 23.4893C37.7797 24.6348 39.4023 25.9749 40.4126 27.1206C40.8592 25.4565 41.0979 23.7073 41.0979 21.9022C41.0979 15.6494 38.2422 10.0638 33.7642 6.37769Z" fill="#FF7186"/>
<path d="M8.2361 6.37769C9.69388 7.37396 10.7971 8.89949 10.413 11.1929C9.40644 17.202 14.0427 20.2676 6.79678 23.4893C4.22059 24.6348 2.59801 25.9749 1.58763 27.1206C1.14105 25.4565 0.902344 23.7073 0.902344 21.9022C0.902344 15.6494 3.75802 10.0638 8.2361 6.37769Z" fill="#FF7186"/>
<path d="M28.8289 12.9676C29.3624 10.7919 29.7982 7.53184 28.6446 4.81923C26.4139 -0.42618 20.343 -0.102812 18.7342 0.0819219C18.5653 0.101281 18.4806 0.293973 18.5766 0.434164C19.541 1.84198 15.7629 0.566481 13.7094 4.87394C12.4079 7.60386 12.7349 10.818 13.2107 12.9677L28.8289 12.9676Z" fill="#945230"/>
<path d="M20.9123 5.77949C20.9123 5.77949 20.3076 4.38873 21.839 3.2403C23.3684 2.09334 21.0885 0.0326291 21.0826 0.027297C20.0568 -0.0376717 19.2046 0.0279533 18.7342 0.0820119C18.5653 0.101453 18.4806 0.294063 18.5766 0.434254C19.541 1.84207 15.7629 0.566571 13.7094 4.87403C12.4079 7.60403 12.7349 10.8182 13.2107 12.9678H16.7808L17.9148 12.5173L20.9123 5.77949Z" fill="#753616"/>
<path d="M29.1427 12.6919C28.8061 12.3834 28.0536 12.5398 27.7637 12.7286C27.8272 13.1241 27.8308 13.5287 27.7761 13.9282L27.434 16.4196C27.434 16.6204 27.4277 16.8175 27.416 17.0111C28.2502 17.2627 28.7466 16.5138 28.8164 15.9999C28.8464 15.7786 28.8955 15.5606 28.9637 15.3478C29.1855 14.655 29.986 13.4647 29.1427 12.6919Z" fill="#FFAA7B"/>
<path d="M12.8582 12.6919C13.1947 12.3834 13.9472 12.5398 14.2371 12.7286C14.1736 13.1241 14.17 13.5287 14.2249 13.9282L14.567 16.4196C14.567 16.6204 14.5733 16.8175 14.5849 17.0111C13.7508 17.2627 13.2544 16.5138 13.1846 15.9999C13.1545 15.7786 13.1054 15.5606 13.0372 15.3478C12.8153 14.655 12.0149 13.4647 12.8582 12.6919Z" fill="#FC9460"/>
<path d="M27.3435 11.3627C26.9645 10.7681 27.0901 10.2824 27.0962 9.71366C27.0962 9.71366 27.416 7.09546 24.1914 6.1658C23.2579 5.89666 21.9406 5.73571 20.5907 5.78748C19.6514 6.44971 19.0328 7.42146 19.0328 8.79843C19.0328 9.4313 19.1692 9.92587 18.7808 10.5675C18.362 11.2595 18.1183 12.2575 18.2567 13.319L18.6052 15.9923C18.6052 19.8357 20.5533 22.4479 22.2104 23.8031C22.4462 23.9959 22.6978 24.1626 22.9602 24.306C23.3206 24.1474 23.6623 23.9448 23.9767 23.7006C25.6034 22.4374 27.5158 20.0023 27.5158 16.4197L27.8579 13.9283C27.9928 12.9466 27.7589 12.0144 27.3435 11.3627Z" fill="#FFC7AB"/>
<path d="M22.227 23.6466C20.6003 22.3162 18.6878 19.7518 18.6878 15.9787L18.3457 13.3543C18.2098 12.3123 18.449 11.3325 18.8602 10.6532C19.2414 10.0233 19.1075 9.5378 19.1075 8.91642C19.1075 7.43387 19.8366 6.42849 20.9121 5.7793C18.0462 5.81892 14.9045 6.79033 14.9045 9.71368C14.9045 10.3036 15.0385 10.7647 14.6572 11.3628C14.2461 12.0078 14.0069 12.9382 14.1427 13.9277L14.4849 16.4197C14.4849 20.0024 16.3972 22.4375 18.0241 23.7007C18.8732 24.36 19.9211 24.7182 21.0003 24.7182C21.7427 24.7182 22.4703 24.5487 23.1285 24.2282C22.8104 24.0702 22.5077 23.8761 22.227 23.6466Z" fill="#FFAA7B"/>
<path d="M25.6058 19.3054C25.4156 18.1711 24.5972 17.0353 23.5045 16.7875L21.8345 16.2968C21.5441 16.2116 21.2535 16.3605 21.1366 16.6133C21.1153 16.6595 21.0507 16.6595 21.0293 16.6133C20.9123 16.3605 20.6217 16.2116 20.3314 16.2968L18.6613 16.7875C18.6199 16.7969 18.579 16.8079 18.5384 16.8198H18.554C18.3771 17.236 18.0713 18.2697 18.9418 19.0594C19.2229 18.9159 19.5236 18.8061 19.8393 18.7364L20.1375 18.6705C20.5723 18.5745 20.9086 18.1501 21.0319 17.6978C21.046 17.6459 21.1198 17.6459 21.134 17.6978C21.2573 18.1501 21.5934 18.5745 22.0283 18.6705L22.3266 18.7364C23.184 18.9256 23.9353 19.4054 24.4667 20.076C24.3567 20.5651 24.0117 21.3083 22.9427 21.686C22.2254 21.9394 21.4427 21.4883 21.3508 20.7417C21.3496 20.732 21.3485 20.7223 21.3474 20.7125C21.3323 20.5733 21.2158 20.4662 21.0739 20.4662C20.932 20.4662 20.8154 20.5733 20.8003 20.7125C20.7992 20.7223 20.7981 20.732 20.7969 20.7417C20.7475 21.1431 20.4977 21.4576 20.1665 21.6247C20.0745 21.9895 19.9523 22.7762 20.3332 23.5401C20.6087 24.0926 21.0922 24.5201 21.7733 24.8165C22.1184 24.7469 22.4564 24.632 22.7771 24.4688C24.4485 23.6179 26.6706 22.1395 27.3814 18.3362C27.4398 18.0235 27.4695 17.7055 27.4695 17.3874C27.1989 18.0551 26.6365 18.8583 25.6058 19.3054Z" fill="#945230"/>
<path d="M19.2117 24.4679C20.0747 24.9077 21.0611 25.0071 21.9808 24.7689C19.7333 23.8978 20.1979 21.9355 20.3202 21.5331C20.0121 21.751 19.5991 21.8252 19.2053 21.6861C18.2184 21.3374 17.7939 20.677 17.6114 20.1927C17.9859 19.6804 18.4848 19.27 19.0613 19.001C18.1136 18.1815 18.5634 17.071 18.7096 16.7734L18.6616 16.7875C17.5474 17.0402 16.7178 18.2163 16.5492 19.3726C15.4092 18.9428 14.8158 18.09 14.5312 17.3874V17.3878C14.5312 17.7055 14.5609 18.023 14.6192 18.3353C15.3287 22.1379 17.5402 23.6161 19.2117 24.4679Z" fill="#753616"/>
</svg>
