<svg width="14" height="16" viewBox="0 0 14 16" fill="none" xmlns="http://www.w3.org/2000/svg">
<path d="M2.43815 15.5C2.10482 15.5 1.81315 15.375 1.56315 15.125C1.31315 14.875 1.18815 14.5833 1.18815 14.25V2.375H0.958984C0.778429 2.375 0.629123 2.31597 0.511068 2.19792C0.393012 2.07986 0.333984 1.93056 0.333984 1.75C0.333984 1.56944 0.393012 1.42014 0.511068 1.30208C0.629123 1.18403 0.778429 1.125 0.958984 1.125H4.25065C4.25065 0.944444 4.30968 0.795139 4.42773 0.677083C4.54579 0.559028 4.6951 0.5 4.87565 0.5H9.12565C9.30621 0.5 9.45551 0.559028 9.57357 0.677083C9.69162 0.795139 9.75065 0.944444 9.75065 1.125H13.0423C13.2229 1.125 13.3722 1.18403 13.4902 1.30208C13.6083 1.42014 13.6673 1.56944 13.6673 1.75C13.6673 1.93056 13.6083 2.07986 13.4902 2.19792C13.3722 2.31597 13.2229 2.375 13.0423 2.375H12.8132V14.25C12.8132 14.5833 12.6882 14.875 12.4382 15.125C12.1882 15.375 11.8965 15.5 11.5632 15.5H2.43815ZM2.43815 2.375V14.25H11.5632V2.375H2.43815ZM4.64648 11.8333C4.64648 12.0139 4.70551 12.1632 4.82357 12.2812C4.94162 12.3993 5.09093 12.4583 5.27148 12.4583C5.45204 12.4583 5.60135 12.3993 5.7194 12.2812C5.83746 12.1632 5.89648 12.0139 5.89648 11.8333V4.77083C5.89648 4.59028 5.83746 4.44097 5.7194 4.32292C5.60135 4.20486 5.45204 4.14583 5.27148 4.14583C5.09093 4.14583 4.94162 4.20486 4.82357 4.32292C4.70551 4.44097 4.64648 4.59028 4.64648 4.77083V11.8333ZM8.10482 11.8333C8.10482 12.0139 8.16385 12.1632 8.2819 12.2812C8.39996 12.3993 8.54926 12.4583 8.72982 12.4583C8.91037 12.4583 9.05968 12.3993 9.17773 12.2812C9.29579 12.1632 9.35482 12.0139 9.35482 11.8333V4.77083C9.35482 4.59028 9.29579 4.44097 9.17773 4.32292C9.05968 4.20486 8.91037 4.14583 8.72982 4.14583C8.54926 4.14583 8.39996 4.20486 8.2819 4.32292C8.16385 4.44097 8.10482 4.59028 8.10482 4.77083V11.8333ZM2.43815 2.375V14.25V2.375Z" fill="#E10000"/>
</svg>
