<svg width="16" height="16" viewBox="0 0 16 16" fill="none" xmlns="http://www.w3.org/2000/svg">
<path d="M1.75 14.5107H2.66667L11.8958 5.28155L10.9792 4.36488L1.75 13.594V14.5107ZM14.5417 4.38571L11.875 1.71905L12.75 0.844048C12.9861 0.607936 13.2812 0.493353 13.6354 0.500298C13.9896 0.507242 14.2847 0.62877 14.5208 0.864881L15.4167 1.76071C15.6528 1.99683 15.7708 2.28849 15.7708 2.63571C15.7708 2.98294 15.6528 3.2746 15.4167 3.51071L14.5417 4.38571ZM1.125 15.7607C0.944444 15.7607 0.795139 15.7017 0.677083 15.5836C0.559028 15.4656 0.5 15.3163 0.5 15.1357V13.344C0.5 13.2607 0.513889 13.1843 0.541667 13.1149C0.569444 13.0454 0.618055 12.976 0.6875 12.9065L11 2.59405L13.6667 5.26071L3.35417 15.5732C3.28472 15.6427 3.21528 15.6913 3.14583 15.719C3.07639 15.7468 3 15.7607 2.91667 15.7607H1.125ZM11.4375 4.82321L10.9792 4.36488L11.8958 5.28155L11.4375 4.82321Z" fill="#5D7280"/>
</svg>
