<svg width="54" height="54" viewBox="0 0 54 54" fill="none" xmlns="http://www.w3.org/2000/svg">
<g clip-path="url(#clip0_44_9961)">
<g clip-path="url(#clip1_44_9961)">
<path d="M17.1065 20.4262C17.1065 18.1668 15.3054 16.3657 13.0787 16.3657C10.8192 16.3657 9.01819 18.1668 9.01819 20.4262C9.01819 22.653 10.8192 24.4867 13.0787 24.4867C15.3054 24.454 17.1065 22.653 17.1065 20.4262Z" fill="#FFD2BF"/>
<path d="M6.66028 32.313C6.72577 28.449 9.57468 25.3381 13.0785 25.3381C16.5823 25.3381 19.4312 28.449 19.4967 32.313H6.66028Z" fill="#FFD2BF"/>
<path d="M28.909 21.1174C28.909 18.0296 26.4477 15.5684 23.4047 15.5684C20.317 15.5684 17.8557 18.0296 17.8557 21.1174C17.8557 24.1604 20.317 26.6664 23.4047 26.6664C26.4477 26.6216 28.909 24.1604 28.909 21.1174Z" fill="#7A8A96"/>
<path d="M14.6338 37.3616C14.7233 32.0811 18.6166 27.8298 23.4048 27.8298C28.1931 27.8298 32.0863 32.0811 32.1758 37.3616H14.6338Z" fill="#7A8A96"/>
<path d="M34.4585 30.7483C31.4136 30.7483 29.0165 33.2102 29.0165 36.1903C29.0165 39.1705 31.4783 41.6323 34.4585 41.6323C37.4387 41.6323 39.9005 39.1705 39.9005 36.1903C39.9005 33.2102 37.5034 30.7483 34.4585 30.7483ZM34.4585 39.4944C32.6445 39.4944 31.1544 38.0043 31.1544 36.1903C31.1544 34.3763 32.6445 32.8862 34.4585 32.8862C36.2725 32.8862 37.7626 34.3763 37.7626 36.1903C37.7626 38.0043 36.2725 39.4944 34.4585 39.4944Z" fill="black"/>
<path d="M45.7316 37.8747V34.5059L43.2049 34.2467C42.9458 33.2102 42.5571 32.2384 42.0388 31.3961L43.6584 29.4526L41.2614 27.0555L39.3178 28.6751C38.4756 28.0921 37.5038 27.7033 36.4672 27.509L36.208 25.0471H34.5236H32.7744L32.5152 27.509C31.4787 27.7681 30.5069 28.1568 29.6647 28.6751L27.7211 27.0555L25.324 29.4526L26.9437 31.3961C26.3606 32.2384 25.9719 33.2102 25.7775 34.2467L23.2509 34.5059V37.8747L25.7775 38.1339C26.0367 39.1705 26.4254 40.1423 26.9437 40.9845L25.324 42.928L27.7211 45.3251L29.6647 43.7055C30.5069 44.2886 31.4787 44.6773 32.5152 44.8716L32.7744 47.4631H34.4588H36.1433L36.4024 45.0012C37.439 44.7421 38.4108 44.3533 39.253 43.8351L41.1966 45.4547L43.5937 43.0576L41.974 41.114C42.5571 40.2718 42.9458 39.3 43.1401 38.2635L45.7316 37.8747ZM34.4588 41.6971C31.4139 41.6971 29.0168 39.2352 29.0168 36.2551C29.0168 33.2749 31.4787 30.8131 34.4588 30.8131C37.439 30.8131 39.9009 33.2749 39.9009 36.2551C39.9009 39.2352 37.5038 41.6971 34.4588 41.6971Z" fill="#32BEA6"/>
</g>
</g>
<defs>
<clipPath id="clip0_44_9961">
<rect width="41.463" height="41.463" fill="white" transform="translate(4.26843 6)"/>
</clipPath>
<clipPath id="clip1_44_9961">
<rect width="41.463" height="41.463" fill="white" transform="translate(4.26843 6)"/>
</clipPath>
</defs>
</svg>
