<svg width="50" height="54" viewBox="0 0 50 54" fill="none" xmlns="http://www.w3.org/2000/svg">
<g clip-path="url(#clip0_44_9965)">
<g clip-path="url(#clip1_44_9965)">
<path d="M45.6685 25.4925C45.5832 24.3951 45.4125 23.3217 45.163 22.2789L44.6767 22.3952C44.428 21.3555 44.0989 20.3469 43.6965 19.3764L44.1583 19.1849C43.7401 18.1764 43.2446 17.208 42.6791 16.2872L42.2531 16.5489C41.6971 15.6435 41.0718 14.7852 40.3846 13.9814L40.7647 13.6565C40.059 12.831 39.2896 12.0616 38.4641 11.3559L38.1392 11.736C37.3354 11.0488 36.4771 10.4235 35.5717 9.86756L35.8334 9.44148C34.9126 8.87603 33.9442 8.3805 32.9357 7.96228L32.7442 8.42414C31.7737 8.0217 30.7651 7.69264 29.7254 7.44387L29.8417 6.9576C28.7989 6.7081 27.7255 6.53741 26.6281 6.45216L26.5894 6.95065C26.065 6.90992 25.535 6.88916 24.9999 6.88916C24.4649 6.88916 23.9349 6.90992 23.4105 6.95065L23.3718 6.45216C22.2744 6.53741 21.201 6.7081 20.1582 6.9576L20.2745 7.44387C19.2347 7.69264 18.2262 8.0217 17.2557 8.42414L17.0642 7.96228C16.0557 8.3805 15.0873 8.87603 14.1665 9.44148L14.4281 9.86756C13.5228 10.4235 12.6645 11.0488 11.8607 11.736L11.5358 11.3559C10.7103 12.0616 9.94088 12.831 9.2352 13.6565L9.61525 13.9814C8.92805 14.7852 8.30279 15.6435 7.74683 16.5489L7.32075 16.2872C6.7553 17.208 6.25977 18.1764 5.84155 19.1849L6.30341 19.3764C5.90097 20.3469 5.57191 21.3555 5.32315 22.3952L4.83687 22.2789C4.58738 23.3217 4.41668 24.3951 4.33143 25.4925L4.82993 25.5312C4.78919 26.0556 4.76843 26.5857 4.76843 27.1207C4.76843 27.6557 4.78919 28.1858 4.82993 28.7101L4.33143 28.7489C4.41668 29.8462 4.58738 30.9196 4.83687 31.9624L5.32314 31.8461C5.57191 32.8859 5.90097 33.8944 6.30341 34.8649L5.84155 35.0564C6.25977 36.065 6.7553 37.0333 7.32075 37.9541L7.74683 37.6925C8.30279 38.5978 8.92805 39.4561 9.61525 40.26L9.2352 40.5849C9.94088 41.4103 10.7103 42.1797 11.5358 42.8854L11.8607 42.5054C12.6645 43.1926 13.5228 43.8178 14.4281 44.3738L14.1665 44.7999C15.0873 45.3653 16.0557 45.8608 17.0642 46.2791L17.2557 45.8172C18.2262 46.2196 19.2347 46.5487 20.2745 46.7975L20.1582 47.2837C21.201 47.5332 22.2744 47.7039 23.3718 47.7892L23.4105 47.2907C23.9349 47.3314 24.4649 47.3522 24.9999 47.3522C25.535 47.3522 26.065 47.3314 26.5894 47.2907L26.6281 47.7892C27.7255 47.7039 28.7989 47.5332 29.8417 47.2837L29.7254 46.7975C30.7651 46.5487 31.7737 46.2196 32.7442 45.8172L32.9357 46.2791C33.9442 45.8608 34.9126 45.3653 35.8334 44.7999L35.5717 44.3738C36.4771 43.8178 37.3354 43.1926 38.1392 42.5054L38.4641 42.8854C39.2896 42.1797 40.059 41.4103 40.7647 40.5849L40.3846 40.26C41.0718 39.4561 41.6971 38.5978 42.2531 37.6925L42.6791 37.9541C43.2446 37.0333 43.7401 36.065 44.1583 35.0564L43.6965 34.8649C44.0989 33.8944 44.428 32.8859 44.6767 31.8461L45.163 31.9624C45.4125 30.9196 45.5832 29.8462 45.6685 28.7489L45.17 28.7101C45.2107 28.1858 45.2315 27.6557 45.2315 27.1207C45.2315 26.5857 45.2107 26.0556 45.17 25.5312L45.6685 25.4925Z" fill="#F9F9F9" stroke="#FFBC46" stroke-dasharray="3 3"/>
<path d="M38.1767 14.635L35.7706 17.0412C30.0221 11.2927 20.6683 11.2927 14.9198 17.0412C9.17138 22.7896 9.17138 32.1434 14.9198 37.8919L12.5137 40.2981C5.4274 33.2118 5.4274 21.722 12.5137 14.635C19.6 7.54809 31.0904 7.54809 38.1767 14.635Z" fill="white"/>
<path d="M24.9999 16.3188C19.0344 16.3188 14.1981 21.1551 14.1981 27.1206C14.1981 33.0861 19.0344 37.9224 24.9999 37.9224C30.9628 37.9224 35.7971 33.0906 35.8017 27.1284H24.9999V16.3188Z" fill="#FFCEBA"/>
<path d="M32.6414 19.4868L24.9999 27.1283H35.8016C35.8016 27.1257 35.8016 27.1231 35.8016 27.1205C35.8016 24.1397 34.594 21.4408 32.6414 19.4868Z" fill="#FF363C"/>
<path d="M24.9999 16.3188V27.1284L32.6414 19.4869C30.6868 17.5297 27.9846 16.3188 24.9999 16.3188Z" fill="#25B6D2"/>
<path d="M32.6414 34.7465L24.9999 27.105H35.8016V27.1128C35.8016 30.0936 34.594 32.7919 32.6414 34.7465Z" fill="#32BEA6"/>
<path d="M24.9999 37.9145V27.105L32.6414 34.7465C30.6868 36.7037 27.9846 37.9145 24.9999 37.9145Z" fill="black"/>
</g>
</g>
<defs>
<clipPath id="clip0_44_9965">
<rect width="41.463" height="41.463" fill="white" transform="translate(4.26843 6.38916)"/>
</clipPath>
<clipPath id="clip1_44_9965">
<rect width="41.463" height="41.463" fill="white" transform="translate(4.26843 6.38916)"/>
</clipPath>
</defs>
</svg>
