<svg width="50" height="55" viewBox="0 0 50 55" fill="none" xmlns="http://www.w3.org/2000/svg">
<g clip-path="url(#clip0_44_9966)">
<g clip-path="url(#clip1_44_9966)">
<path d="M40.5486 31.4157C40.191 31.4157 39.9008 31.1287 39.9008 30.771V30.7646C39.9008 30.4069 40.191 30.1167 40.5486 30.1167C40.9062 30.1167 41.1965 30.4069 41.1965 30.7646C41.1965 31.1222 40.9062 31.4157 40.5486 31.4157Z" fill="black"/>
<path d="M41.1965 47.0194C41.1965 47.732 40.6134 48.3151 39.9007 48.3151H10.0992C9.38654 48.3151 8.80347 47.732 8.80347 47.0194V8.14777C8.80347 7.43512 9.38654 6.85205 10.0992 6.85205H35.3657L36.0136 7.49991V12.0349H40.5486L41.1965 12.6828V47.0194Z" fill="#E8E8E8"/>
<path d="M41.1965 12.6828H36.6614C35.9488 12.6828 35.3657 12.0997 35.3657 11.3871V6.85205L41.1965 12.6828Z" fill="white"/>
<path d="M37.3093 32.1185C41.9607 32.1185 45.7314 28.3478 45.7314 23.6963C45.7314 19.0449 41.9607 15.2742 37.3093 15.2742C32.6578 15.2742 28.8871 19.0449 28.8871 23.6963C28.8871 28.3478 32.6578 32.1185 37.3093 32.1185Z" fill="white"/>
<path d="M24.9999 13.3306H15.9298C15.5722 13.3306 15.282 13.0404 15.282 12.6828C15.282 12.3252 15.5722 12.0349 15.9298 12.0349H24.9999C25.3575 12.0349 25.6477 12.3252 25.6477 12.6828C25.6477 13.0404 25.3575 13.3306 24.9999 13.3306Z" fill="#57555C"/>
<path d="M24.9999 15.9222H13.3384C12.9808 15.9222 12.6906 15.6319 12.6906 15.2743C12.6906 14.9167 12.9808 14.6265 13.3384 14.6265H24.9999C25.3575 14.6265 25.6477 14.9167 25.6477 15.2743C25.6477 15.6319 25.3575 15.9222 24.9999 15.9222Z" fill="#57555C"/>
<path d="M24.9999 18.5135H13.3384C12.9808 18.5135 12.6906 18.2233 12.6906 17.8656C12.6906 17.508 12.9808 17.2178 13.3384 17.2178H24.9999C25.3575 17.2178 25.6477 17.508 25.6477 17.8656C25.6477 18.2233 25.3575 18.5135 24.9999 18.5135Z" fill="#57555C"/>
<path d="M18.5213 21.105H13.3384C12.9808 21.105 12.6906 20.8148 12.6906 20.4572C12.6906 20.0996 12.9808 19.8093 13.3384 19.8093H18.5213C18.8789 19.8093 19.1691 20.0996 19.1691 20.4572C19.1691 20.8148 18.8789 21.105 18.5213 21.105Z" fill="#57555C"/>
<path d="M36.0135 36.0057H32.1264C31.7688 36.0057 31.4785 35.7154 31.4785 35.3578C31.4785 35.0002 31.7688 34.71 32.1264 34.71H36.0135C36.3712 34.71 36.6614 35.0002 36.6614 35.3578C36.6614 35.7154 36.3712 36.0057 36.0135 36.0057Z" fill="#57555C"/>
<path d="M36.0135 38.5972H29.5349C29.1773 38.5972 28.8871 38.307 28.8871 37.9494C28.8871 37.5918 29.1773 37.3015 29.5349 37.3015H36.0135C36.3712 37.3015 36.6614 37.5918 36.6614 37.9494C36.6614 38.307 36.3712 38.5972 36.0135 38.5972Z" fill="#57555C"/>
<path d="M36.0135 41.1885H29.5349C29.1773 41.1885 28.8871 40.8983 28.8871 40.5407C28.8871 40.1831 29.1773 39.8928 29.5349 39.8928H36.0135C36.3712 39.8928 36.6614 40.1831 36.6614 40.5407C36.6614 40.8983 36.3712 41.1885 36.0135 41.1885Z" fill="#57555C"/>
<path d="M32.1264 43.7801H29.5349C29.1773 43.7801 28.8871 43.4899 28.8871 43.1322C28.8871 42.7746 29.1773 42.4844 29.5349 42.4844H32.1264C32.484 42.4844 32.7742 42.7746 32.7742 43.1322C32.7742 43.4899 32.484 43.7801 32.1264 43.7801Z" fill="#57555C"/>
<path d="M24.9999 24.992H15.9298C15.5722 24.992 15.282 24.7018 15.282 24.3441C15.282 23.9865 15.5722 23.6963 15.9298 23.6963H24.9999C25.3575 23.6963 25.6477 23.9865 25.6477 24.3441C25.6477 24.7018 25.3575 24.992 24.9999 24.992Z" fill="#57555C"/>
<path d="M18.5213 27.5836H13.3384C12.9808 27.5836 12.6906 27.2933 12.6906 26.9357C12.6906 26.5781 12.9808 26.2878 13.3384 26.2878H18.5213C18.8789 26.2878 19.1691 26.5781 19.1691 26.9357C19.1691 27.2933 18.8789 27.5836 18.5213 27.5836Z" fill="#57555C"/>
<path d="M21.1127 21.105C21.4705 21.105 21.7606 20.815 21.7606 20.4572C21.7606 20.0994 21.4705 19.8093 21.1127 19.8093C20.7549 19.8093 20.4648 20.0994 20.4648 20.4572C20.4648 20.815 20.7549 21.105 21.1127 21.105Z" fill="#57555C"/>
<path d="M21.1127 27.5836C21.4705 27.5836 21.7606 27.2935 21.7606 26.9357C21.7606 26.5779 21.4705 26.2878 21.1127 26.2878C20.7549 26.2878 20.4648 26.5779 20.4648 26.9357C20.4648 27.2935 20.7549 27.5836 21.1127 27.5836Z" fill="#57555C"/>
<path d="M34.7178 43.7801C35.0756 43.7801 35.3657 43.49 35.3657 43.1322C35.3657 42.7744 35.0756 42.4844 34.7178 42.4844C34.36 42.4844 34.0699 42.7744 34.0699 43.1322C34.0699 43.49 34.36 43.7801 34.7178 43.7801Z" fill="#57555C"/>
<path d="M37.3092 15.9221V23.6964H29.5349C29.5349 19.4011 33.0139 15.9221 37.3092 15.9221Z" fill="#FFB74F"/>
<path d="M42.8096 29.1966C41.4038 30.6025 39.4602 31.4706 37.3093 31.4706C35.1584 31.4706 33.2148 30.6025 31.809 29.1966L37.3093 23.6963L42.8096 29.1966Z" fill="#84CAFF"/>
<path d="M45.0836 23.6964C45.0836 25.8473 44.2155 27.7909 42.8097 29.1968L37.3093 23.6964V15.9221C41.6046 15.9221 45.0836 19.4011 45.0836 23.6964Z" fill="#0191DE"/>
<path d="M37.3092 23.6963L31.8089 29.1966C30.403 27.7908 29.5349 25.8472 29.5349 23.6963H37.3092Z" fill="#FF5500"/>
<path d="M7.50769 43.78V37.3014C7.50769 36.9445 7.79858 36.6536 8.15555 36.6536H10.747C11.104 36.6536 11.3948 36.9445 11.3948 37.3014V43.78H7.50769Z" fill="#FFB74F"/>
<path d="M11.3949 43.7802V34.7101C11.3949 34.3531 11.6858 34.0623 12.0428 34.0623H14.6342C14.9912 34.0623 15.2821 34.3531 15.2821 34.7101V43.7802H11.3949Z" fill="#FF5500"/>
<path d="M15.2821 43.7801V36.0058C15.2821 35.6488 15.573 35.3579 15.93 35.3579H18.5214C18.8784 35.3579 19.1693 35.6488 19.1693 36.0058V43.7801H15.2821Z" fill="#84CAFF"/>
<path d="M19.1692 43.7799V31.4706C19.1692 31.1136 19.4601 30.8228 19.817 30.8228H22.4085C22.7655 30.8228 23.0563 31.1136 23.0563 31.4706V43.7799H19.1692Z" fill="#0191DE"/>
<path d="M25.6478 44.4278H4.91629C4.55867 44.4278 4.26843 44.1376 4.26843 43.7799C4.26843 43.4223 4.55867 43.1321 4.91629 43.1321H25.6478C26.0054 43.1321 26.2957 43.4223 26.2957 43.7799C26.2957 44.1376 26.0054 44.4278 25.6478 44.4278Z" fill="white"/>
</g>
</g>
<defs>
<clipPath id="clip0_44_9966">
<rect width="41.463" height="41.463" fill="white" transform="translate(4.26843 6.85205)"/>
</clipPath>
<clipPath id="clip1_44_9966">
<rect width="41.463" height="41.463" fill="white" transform="translate(4.26843 6.85205)"/>
</clipPath>
</defs>
</svg>
