<svg width="56" height="54" viewBox="0 0 56 54" fill="none" xmlns="http://www.w3.org/2000/svg">
<g clip-path="url(#clip0_44_9962)">
<g clip-path="url(#clip1_44_9962)">
<path d="M13.5416 47.7641V9.09985H42.4582V43.3911L38.0858 47.7641H13.5416Z" fill="white"/>
<path d="M42.2962 9.26192V43.3244L38.019 47.6023H13.7036V9.26192H42.2962ZM42.6201 8.93799H13.3796V47.9262H38.1531L42.6201 43.4585V8.93799Z" fill="#7A8A96"/>
<path d="M38.1532 47.9261V43.4585H42.6202L38.1532 47.9261Z" fill="#00000A"/>
<path d="M38.1532 43.3103H42.6202V43.4587H38.1532V43.3103Z" fill="#00000A"/>
<path d="M38.0048 47.9263V43.3103H38.1531V47.9263H38.0048Z" fill="#00000A"/>
<path d="M20.0914 16.4246H24.241V24.6284H20.0914V16.4246Z" fill="#E04F5F"/>
<path d="M27.9221 11.7368H32.0717V24.6286H27.9221V11.7368Z" fill="#FFD07D"/>
<path d="M35.7528 6.46313H39.9023V24.6285H35.7528V6.46313Z" fill="#25B6D2"/>
<path d="M16.098 24.3044H39.9017V24.9523H16.098V24.3044Z" fill="#666666"/>
<path d="M20.6499 27.6604C18.6007 27.6604 16.939 29.3215 16.939 31.3713C16.939 33.4205 18.6001 35.0823 20.6499 35.0823C22.6984 35.0823 24.3589 33.4225 24.3602 31.3746H20.6499V27.6604Z" fill="#FFD07D"/>
<path d="M23.275 28.7488L20.6499 31.3739H24.3602V31.3713C24.3608 30.347 23.9456 29.42 23.275 28.7488Z" fill="#CFDCE5"/>
<path d="M20.6499 27.6604V31.3739L23.275 28.7488C22.6032 28.0763 21.6755 27.6604 20.6499 27.6604Z" fill="#CFDCE5"/>
<path d="M23.275 33.9913L20.6499 31.3662H24.3602V31.3688C24.3608 32.3924 23.9456 33.3195 23.275 33.9913Z" fill="#AAC1CE"/>
<path d="M20.6499 35.079V31.3655L23.275 33.9906C22.6032 34.6631 21.6755 35.079 20.6499 35.079Z" fill="#8BA0AE"/>
<path d="M20.6499 37.1372C18.6007 37.1372 16.939 38.7983 16.939 40.8481C16.939 42.8973 18.6001 44.5591 20.6499 44.5591C22.6984 44.5591 24.3589 42.8993 24.3602 40.8514H20.6499V37.1372Z" fill="#E04F5F"/>
<path d="M23.275 38.2256L20.6499 40.8507H24.3602V40.8481C24.3608 39.8239 23.9456 38.8968 23.275 38.2256Z" fill="#CFDCE5"/>
<path d="M20.6499 37.1372V40.8507L23.275 38.2256C22.6032 37.5531 21.6755 37.1372 20.6499 37.1372Z" fill="#CFDCE5"/>
<path d="M23.275 43.4674L20.6499 40.8423H24.3602V40.8449C24.3608 41.8691 23.9456 42.7962 23.275 43.4674Z" fill="#AAC1CE"/>
<path d="M20.6499 44.5558V40.8423L23.275 43.4674C22.6032 44.1399 21.6755 44.5558 20.6499 44.5558Z" fill="#8BA0AE"/>
<path d="M26.4703 39.0847H39.0608V39.4086H26.4703V39.0847Z" fill="#AAC1CE"/>
<path d="M26.4703 40.6804H39.0608V41.0043H26.4703V40.6804Z" fill="#AAC1CE"/>
<path d="M26.4703 42.2761H31.5709V42.6001H26.4703V42.2761Z" fill="#AAC1CE"/>
<path d="M26.4703 29.6162H39.0608V29.9401H26.4703V29.6162Z" fill="#AAC1CE"/>
<path d="M26.4703 31.2119H39.0608V31.5358H26.4703V31.2119Z" fill="#AAC1CE"/>
<path d="M26.4703 32.8076H31.5709V33.1315H26.4703V32.8076Z" fill="#AAC1CE"/>
</g>
</g>
<defs>
<clipPath id="clip0_44_9962">
<rect width="41.463" height="41.463" fill="white" transform="translate(7.26843 6.46313)"/>
</clipPath>
<clipPath id="clip1_44_9962">
<rect width="41.463" height="41.463" fill="white" transform="translate(7.26843 6.46313)"/>
</clipPath>
</defs>
</svg>
