<svg width="54" height="55" viewBox="0 0 54 55" fill="none" xmlns="http://www.w3.org/2000/svg">
<g clip-path="url(#clip0_44_9963)">
<g clip-path="url(#clip1_44_9963)">
<path d="M43.7454 8.52075H24.3514C24.121 8.52075 23.9342 8.7075 23.9342 8.93789V21.9468C23.9342 23.2525 23.9342 26.196 23.9342 30.0823C23.9342 32.2915 25.7251 34.0832 27.9342 34.0832H33.9808H43.7455C43.9759 34.0832 44.1627 33.8964 44.1627 33.6661V8.93789C44.1626 8.7075 43.9758 8.52075 43.7454 8.52075Z" fill="#25B6D2"/>
<path d="M38.1589 15.5822H39.852C40.0756 15.5822 40.2569 15.4009 40.2569 15.1773V13.4843C40.2569 13.2607 40.0756 13.0793 39.852 13.0793H38.1589C37.9353 13.0793 37.754 13.2607 37.754 13.4843V15.1773C37.754 15.401 37.9353 15.5822 38.1589 15.5822Z" fill="white"/>
<path d="M35.4805 14.9381H27.5393C27.2038 14.9381 26.9319 14.6663 26.9319 14.3308C26.9319 13.9952 27.2038 13.7234 27.5393 13.7234H35.4805C35.8159 13.7234 36.0878 13.9952 36.0878 14.3308C36.0878 14.6663 35.8159 14.9381 35.4805 14.9381Z" fill="white"/>
<path d="M38.1589 20.3058H39.852C40.0756 20.3058 40.2569 20.1245 40.2569 19.9009V18.2079C40.2569 17.9843 40.0756 17.803 39.852 17.803H38.1589C37.9353 17.803 37.754 17.9843 37.754 18.2079V19.9009C37.754 20.1245 37.9353 20.3058 38.1589 20.3058Z" fill="white"/>
<path d="M35.4805 19.6618H27.5393C27.2038 19.6618 26.9319 19.3899 26.9319 19.0544C26.9319 18.7189 27.2038 18.447 27.5393 18.447H35.4805C35.8159 18.447 36.0878 18.7189 36.0878 19.0544C36.0878 19.3899 35.8159 19.6618 35.4805 19.6618Z" fill="white"/>
<path d="M38.1589 25.0295H39.852C40.0756 25.0295 40.2569 24.8481 40.2569 24.6245V22.9315C40.2569 22.7079 40.0756 22.5266 39.852 22.5266H38.1589C37.9353 22.5266 37.754 22.7079 37.754 22.9315V24.6245C37.754 24.8481 37.9353 25.0295 38.1589 25.0295Z" fill="white"/>
<path d="M35.4805 23.1707H28.8898C28.6804 23.1707 28.4957 23.2767 28.3865 23.4379C28.8668 23.7206 29.3246 24.0376 29.7565 24.3854H35.4805C35.8159 24.3854 36.0878 24.1135 36.0878 23.778C36.0878 23.4425 35.816 23.1707 35.4805 23.1707Z" fill="white"/>
<path d="M38.1588 29.7531H39.8518C40.0754 29.7531 40.2568 29.5718 40.2568 29.3482V27.6552C40.2568 27.4316 40.0754 27.2502 39.8518 27.2502H38.1588C37.9352 27.2502 37.7539 27.4316 37.7539 27.6552V29.3482C37.7539 29.5719 37.9352 29.7531 38.1588 29.7531Z" fill="white"/>
<path d="M35.4804 27.8943H27.3126C27.2404 27.8943 27.1715 27.9076 27.1073 27.9306C27.3095 28.3112 27.4907 28.7045 27.6495 29.109H35.4805C35.8159 29.109 36.0879 28.8372 36.0879 28.5017C36.0879 28.1661 35.8158 27.8943 35.4804 27.8943Z" fill="white"/>
<path d="M21.6771 17.4246V20.4606C22.3433 20.3387 23.0293 20.2747 23.7301 20.2747C24.4309 20.2747 25.1169 20.3388 25.7831 20.4606V17.4246H21.6771Z" fill="black"/>
<path d="M26.8587 17.5055H20.6016C20.2662 17.5055 19.9943 17.2337 19.9943 16.8981C19.9943 16.5626 20.2662 16.2908 20.6016 16.2908H26.8587C27.1941 16.2908 27.466 16.5626 27.466 16.8981C27.466 17.2337 27.1941 17.5055 26.8587 17.5055Z" fill="#7A8A96"/>
<path d="M23.7301 20.1936C18.148 20.1936 13.4987 24.1841 12.4772 29.4678H12.824C13.0495 29.4678 13.2329 29.6512 13.2329 29.8767V31.0795C13.2329 31.3297 13.3958 31.5491 13.6381 31.6254C13.9554 31.7252 14.2657 31.8536 14.5601 32.0071C14.6437 32.0507 14.7373 32.0737 14.8307 32.0737C14.9831 32.0737 15.1259 32.0146 15.233 31.9076L16.0833 31.0573C16.1606 30.9801 16.2633 30.9375 16.3724 30.9375C16.4816 30.9375 16.5844 30.9801 16.6615 31.0573L17.9511 32.3469C18.1106 32.5063 18.1106 32.7657 17.9511 32.9252L17.1008 33.7755C16.9238 33.9525 16.8839 34.2228 17.0013 34.4485C17.1548 34.7432 17.2832 35.0533 17.383 35.3704C17.4593 35.6128 17.6787 35.7757 17.9289 35.7757H19.1317C19.3572 35.7757 19.5406 35.9591 19.5406 36.1846V38.0083C19.5406 38.2337 19.3572 38.4172 19.1317 38.4172H17.929C17.6788 38.4172 17.4594 38.5801 17.3831 38.8225C17.2832 39.1398 17.1548 39.4499 17.0014 39.7444C16.8839 39.97 16.9238 40.2404 17.1009 40.4174L17.9512 41.2677C18.0476 41.3641 18.0847 41.4971 18.0645 41.6225C19.7356 42.5746 21.6692 43.1188 23.7302 43.1188C30.0607 43.1188 35.1926 37.9869 35.1926 31.6564C35.1926 25.3259 30.0607 20.1936 23.7301 20.1936Z" fill="#7A8A96"/>
<path d="M23.7301 23.2932C19.1189 23.2932 15.3673 27.0447 15.3673 31.656C15.3673 31.6947 15.3683 31.7332 15.3688 31.7718L16.0833 31.0572C16.1605 30.9801 16.2632 30.9375 16.3724 30.9375C16.4815 30.9375 16.5843 30.98 16.6615 31.0572L17.9511 32.3468C18.1105 32.5063 18.1105 32.7657 17.9511 32.9251L17.1007 33.7754C16.9238 33.9524 16.8839 34.2228 17.0013 34.4484C17.1548 34.7431 17.2831 35.0532 17.383 35.3703C17.4592 35.6128 17.6786 35.7756 17.9289 35.7756H19.1317C19.3572 35.7756 19.5406 35.959 19.5406 36.1845V38.0082C19.5406 38.2337 19.3572 38.4172 19.1317 38.4172H18.8142C20.195 39.4239 21.8942 40.019 23.73 40.019C28.3413 40.019 32.0929 36.2675 32.0929 31.6562C32.0929 27.0447 28.3414 23.2932 23.7301 23.2932Z" fill="white"/>
<path d="M23.73 23.8196C23.5257 23.8196 23.3231 23.8275 23.1227 23.843V24.6701C23.1227 25.0056 23.3946 25.2775 23.73 25.2775C24.0655 25.2775 24.3374 25.0056 24.3374 24.6701V23.843C24.137 23.8275 23.9344 23.8196 23.73 23.8196Z" fill="#D9E7EC"/>
<path d="M23.73 38.0344C23.3946 38.0344 23.1227 38.3063 23.1227 38.6418V39.469C23.3231 39.4845 23.5257 39.4924 23.73 39.4924C23.9344 39.4924 24.137 39.4845 24.3374 39.469V38.6418C24.3374 38.3063 24.0655 38.0344 23.73 38.0344Z" fill="#D9E7EC"/>
<path d="M31.5431 31.0486H30.7159C30.3805 31.0486 30.1085 31.3204 30.1085 31.656C30.1085 31.9915 30.3805 32.2633 30.7159 32.2633H31.5431C31.5586 32.0629 31.5664 31.8604 31.5664 31.656C31.5665 31.4516 31.5586 31.2491 31.5431 31.0486Z" fill="#D9E7EC"/>
<path d="M18.7904 27.3237C18.9458 27.3237 19.1013 27.2644 19.2198 27.1458C19.457 26.9086 19.457 26.524 19.2198 26.2869L18.6378 25.7048C18.3299 25.9687 18.0426 26.2559 17.7788 26.5638L18.3609 27.1458C18.4795 27.2644 18.6349 27.3237 18.7904 27.3237Z" fill="#D9E7EC"/>
<path d="M28.2404 36.1664C28.0032 36.4036 28.0032 36.7882 28.2404 37.0253L28.8225 37.6073C29.1304 37.3435 29.4176 37.0563 29.6815 36.7484L29.0994 36.1663C28.8621 35.9293 28.4775 35.9292 28.2404 36.1664Z" fill="#D9E7EC"/>
<path d="M22.0118 32.5154L20.8816 33.6456C20.6444 33.8829 20.6444 34.2674 20.8816 34.5046C21.0002 34.6231 21.1557 34.6824 21.3111 34.6824C21.4665 34.6824 21.622 34.6231 21.7405 34.5046L22.8707 33.3744C22.5002 33.1883 22.1979 32.886 22.0118 32.5154Z" fill="#25B6D2"/>
<path d="M28.7235 26.6625C28.4863 26.4253 28.1017 26.4253 27.8646 26.6625L24.5894 29.9377C24.9599 30.1238 25.2622 30.4261 25.4483 30.7967L28.7236 27.5214C28.9608 27.2842 28.9608 26.8997 28.7235 26.6625Z" fill="#25B6D2"/>
<path d="M23.7301 33.6589C24.8362 33.6589 25.7328 32.7622 25.7328 31.6561C25.7328 30.55 24.8362 29.6533 23.7301 29.6533C22.624 29.6533 21.7273 30.55 21.7273 31.6561C21.7273 32.7622 22.624 33.6589 23.7301 33.6589Z" fill="#D1D1D1"/>
<path d="M19.6217 38.0081V36.1845C19.6217 35.9139 19.4024 35.6946 19.1319 35.6946H17.929C17.713 35.6946 17.5253 35.5522 17.4604 35.3461C17.3581 35.0212 17.2283 34.7085 17.0733 34.411C16.9735 34.2192 17.0053 33.9856 17.1581 33.8327L18.0084 32.9824C18.1997 32.7911 18.1997 32.4809 18.0084 32.2896L16.7188 31.0001C16.5276 30.8088 16.2173 30.8088 16.026 31.0001L15.1757 31.8504C15.0228 32.0033 14.7893 32.0351 14.5975 31.9352C14.3 31.7802 13.9874 31.6503 13.6624 31.5481C13.4563 31.4832 13.3139 31.2955 13.3139 31.0794V29.8766C13.3139 29.606 13.0946 29.3867 12.824 29.3867H11.0004C10.7299 29.3867 10.5106 29.606 10.5106 29.8766V31.0794C10.5106 31.2955 10.3681 31.4832 10.162 31.5481C9.83711 31.6503 9.52444 31.7802 9.22691 31.9352C9.03514 32.035 8.80159 32.0032 8.6487 31.8504L7.79838 31.0001C7.6071 30.8088 7.29686 30.8088 7.10558 31.0001L5.81601 32.2896C5.62473 32.4809 5.62473 32.7911 5.81601 32.9824L6.66633 33.8327C6.81922 33.9856 6.85105 34.2192 6.7512 34.411C6.5962 34.7085 6.46638 35.0211 6.3641 35.3461C6.29923 35.5522 6.11152 35.6946 5.89545 35.6946H4.69262C4.42206 35.6946 4.20276 35.9139 4.20276 36.1845V38.0081C4.20276 38.2787 4.42206 38.498 4.69262 38.498H5.89545C6.11152 38.498 6.29923 38.6404 6.3641 38.8465C6.46638 39.1714 6.5962 39.4841 6.7512 39.7816C6.85105 39.9734 6.8193 40.2069 6.66641 40.3598L5.81609 41.2102C5.62481 41.4014 5.62481 41.7117 5.81609 41.903L7.10566 43.1925C7.29694 43.3838 7.60718 43.3838 7.79846 43.1925L8.64878 42.3422C8.80167 42.1893 9.03523 42.1575 9.22699 42.2574C9.52452 42.4124 9.83711 42.5422 10.162 42.6445C10.3681 42.7094 10.5106 42.8971 10.5106 43.1132V44.316C10.5106 44.5866 10.7299 44.8059 11.0004 44.8059H12.8241C13.0946 44.8059 13.3139 44.5866 13.3139 44.316V43.1132C13.3139 42.8971 13.4564 42.7094 13.6625 42.6445C13.9874 42.5422 14.3001 42.4124 14.5975 42.2574C14.7893 42.1576 15.0228 42.1893 15.1757 42.3422L16.026 43.1925C16.2173 43.3838 16.5276 43.3838 16.7188 43.1925L18.0084 41.903C18.1997 41.7117 18.1997 41.4014 18.0084 41.2102L17.1581 40.3598C17.0052 40.2069 16.9734 39.9734 17.0733 39.7816C17.2282 39.4841 17.3581 39.1715 17.4604 38.8466C17.5253 38.6405 17.713 38.4981 17.929 38.4981H19.1319C19.4024 38.498 19.6217 38.2787 19.6217 38.0081Z" fill="#FFC5AE"/>
<path d="M12.9065 34.4019H10.9179C10.8399 34.4019 10.7652 34.4328 10.71 34.4879L9.30386 35.8941C9.24871 35.9493 9.21777 36.024 9.21777 36.102V38.0906C9.21777 38.1686 9.24871 38.2433 9.30386 38.2985L10.71 39.7047C10.7652 39.7598 10.8399 39.7908 10.9179 39.7908H12.9065C12.9845 39.7908 13.0593 39.7598 13.1144 39.7047L14.5206 38.2985C14.5757 38.2433 14.6067 38.1686 14.6067 38.0906V36.102C14.6067 36.024 14.5757 35.9493 14.5206 35.8941L13.1144 34.4879C13.0593 34.4329 12.9845 34.4019 12.9065 34.4019Z" fill="#D9E7EC"/>
<path d="M12.9065 40.398H10.9179C10.6771 40.398 10.4508 40.3042 10.2805 40.134L8.87435 38.7279C8.70405 38.5576 8.61035 38.3313 8.61035 38.0906V36.1019C8.61035 35.8611 8.70413 35.6348 8.87435 35.4645L10.2805 34.0584C10.4508 33.8882 10.6771 33.7944 10.9179 33.7944H12.9065C13.1472 33.7944 13.3736 33.8882 13.5438 34.0584L14.95 35.4645C15.1202 35.6348 15.214 35.8611 15.214 36.1019V38.0906C15.214 38.3313 15.1202 38.5577 14.95 38.7279L13.5438 40.134C13.3736 40.3042 13.1472 40.398 12.9065 40.398ZM11.0478 39.1832H12.7767L13.9992 37.9607V36.2317L12.7767 35.0091H11.0478L9.82517 36.2317V37.9607L11.0478 39.1832Z" fill="#476578"/>
</g>
</g>
<defs>
<clipPath id="clip0_44_9963">
<rect width="41.463" height="41.463" fill="white" transform="translate(4 6.92603)"/>
</clipPath>
<clipPath id="clip1_44_9963">
<rect width="41.463" height="41.463" fill="white" transform="translate(4 6.92603)"/>
</clipPath>
</defs>
</svg>
