<svg width="50" height="54" viewBox="0 0 50 54" fill="none" xmlns="http://www.w3.org/2000/svg">
<g clip-path="url(#clip0_44_9967)">
<g clip-path="url(#clip1_44_9967)">
<path d="M19.4167 20.6821C23.3841 20.6821 26.6002 17.466 26.6002 13.4987C26.6002 9.53133 23.3841 6.31519 19.4167 6.31519C15.4494 6.31519 12.2333 9.53133 12.2333 13.4987C12.2333 17.466 15.4494 20.6821 19.4167 20.6821Z" fill="#FFC5AE"/>
<path d="M19.0772 37.3788L12.1367 22.3323C12.1367 22.3323 4.85608 22.4295 4.85608 29.1277C4.85608 35.8259 4.85608 37.3788 4.85608 37.3788C4.85608 37.3788 19.1258 37.3788 19.0772 37.3788Z" fill="#6EB2D9"/>
<path d="M19.7568 37.3788L26.6974 22.3323C26.6974 22.3323 33.978 22.4295 33.978 29.1277C33.978 35.8259 33.978 37.3788 33.978 37.3788C33.978 37.3788 19.7082 37.3788 19.7568 37.3788Z" fill="#6EB2D9"/>
<path d="M19.4167 22.3323H14.4178L19.4167 33.399L24.4163 22.3323H19.4167Z" fill="#E04F5F"/>
<path d="M19.4183 22.2625H16.229L19.4183 30.2361L22.6079 22.2625H19.4183Z" fill="#F48692"/>
<path d="M35.7499 47.7782C40.9381 47.7782 45.1439 43.5723 45.1439 38.3842C45.1439 33.1961 40.9381 28.9902 35.7499 28.9902C30.5618 28.9902 26.356 33.1961 26.356 38.3842C26.356 43.5723 30.5618 47.7782 35.7499 47.7782Z" fill="#FFC839"/>
<path d="M39.0464 33.4255H32.9736V34.632H35.1152C35.9016 34.632 36.5724 35.1364 36.8214 35.8385H32.9736V37.045H36.8214C36.5724 37.7472 35.9016 38.2515 35.1152 38.2515H32.9736V39.458L36.5095 42.9939L37.3626 42.1408L34.6799 39.4581H35.1152C36.5718 39.4581 37.7905 38.4201 38.0708 37.045H39.0464V35.8385H38.0708C37.98 35.393 37.7906 34.9829 37.5267 34.6321H39.0464V33.4255Z" fill="black"/>
</g>
</g>
<defs>
<clipPath id="clip0_44_9967">
<rect width="41.463" height="41.463" fill="white" transform="translate(4.26843 6.31519)"/>
</clipPath>
<clipPath id="clip1_44_9967">
<rect width="41.463" height="41.463" fill="white" transform="translate(4.26843 6.31519)"/>
</clipPath>
</defs>
</svg>
