<svg width="48" height="49" viewBox="0 0 48 49" fill="none" xmlns="http://www.w3.org/2000/svg">
<g clip-path="url(#clip0_205_51033)">
<path d="M36.6923 9.91431H44.3076V40.8892C44.3076 42.9922 42.6029 44.6969 40.5 44.6969V44.6969C38.397 44.6969 36.6923 42.9922 36.6923 40.8892V9.91431Z" fill="#32BEA6"/>
<path d="M36.6923 4.08154H44.3076V9.91429H36.6923V4.08154Z" fill="#EFEFEF"/>
<path d="M25.6926 26.6289H33.308V40.8893C33.308 42.9923 31.6032 44.697 29.5003 44.697V44.697C27.3974 44.697 25.6926 42.9923 25.6926 40.8894V26.6289Z" fill="#25B6D2"/>
<path d="M25.6926 4.08154H33.308V26.6288H25.6926V4.08154Z" fill="#EFEFEF"/>
<path d="M14.692 15.7478H22.3074V40.8894C22.3074 42.9923 20.6026 44.6971 18.4997 44.6971V44.6971C16.3968 44.6971 14.692 42.9923 14.692 40.8894V15.7478Z" fill="#E04F5F"/>
<path d="M14.692 4.08154H22.3074V15.7477H14.692V4.08154Z" fill="#EFEFEF"/>
<path d="M3.69226 4.08154H11.3076V40.8892C11.3076 42.9922 9.60288 44.6969 7.49995 44.6969V44.6969C5.39702 44.6969 3.69226 42.9922 3.69226 40.8892V4.08154Z" fill="#F2B851"/>
</g>
<defs>
<clipPath id="clip0_205_51033">
<rect width="40.6154" height="40.6154" fill="white" transform="translate(3.69226 4.08154)"/>
</clipPath>
</defs>
</svg>
