<svg width="5" height="20" viewBox="0 0 5 20" fill="none" xmlns="http://www.w3.org/2000/svg">
<path d="M2.96387 2.88936C2.36053 2.88936 1.96387 2.44069 1.96387 1.98936C1.96387 1.53802 2.36053 1.08936 2.96387 1.08936C3.5672 1.08936 3.96387 1.53802 3.96387 1.98936C3.96387 2.44069 3.5672 2.88936 2.96387 2.88936ZM2.96387 8.68936C3.5672 8.68936 3.96387 9.13802 3.96387 9.58936C3.96387 10.0407 3.5672 10.4894 2.96387 10.4894C2.36053 10.4894 1.96387 10.0407 1.96387 9.58936C1.96387 9.13802 2.36053 8.68936 2.96387 8.68936ZM2.96387 16.2894C3.5672 16.2894 3.96387 16.738 3.96387 17.1894C3.96387 17.6407 3.5672 18.0894 2.96387 18.0894C2.36053 18.0894 1.96387 17.6407 1.96387 17.1894C1.96387 16.738 2.36053 16.2894 2.96387 16.2894Z" fill="#00385D" stroke="#00385D" stroke-width="2"/>
</svg>
